<svg width="25" height="25" viewBox="0 0 20 19" fill="none" xmlns="http://www.w3.org/2000/svg">
<path d="M12.3749 0.791656H3.66659C2.79575 0.791656 2.08325 1.50416 2.08325 2.37499V12.6667C2.08325 13.1021 2.4395 13.4583 2.87492 13.4583C3.31034 13.4583 3.66659 13.1021 3.66659 12.6667V3.16666C3.66659 2.73124 4.02284 2.37499 4.45825 2.37499H12.3749C12.8103 2.37499 13.1666 2.01874 13.1666 1.58332C13.1666 1.14791 12.8103 0.791656 12.3749 0.791656ZM15.5416 3.95832H6.83325C5.96242 3.95832 5.24992 4.67082 5.24992 5.54166V16.625C5.24992 17.4958 5.96242 18.2083 6.83325 18.2083H15.5416C16.4124 18.2083 17.1249 17.4958 17.1249 16.625V5.54166C17.1249 4.67082 16.4124 3.95832 15.5416 3.95832ZM14.7499 16.625H7.62492C7.1895 16.625 6.83325 16.2687 6.83325 15.8333V6.33332C6.83325 5.89791 7.1895 5.54166 7.62492 5.54166H14.7499C15.1853 5.54166 15.5416 5.89791 15.5416 6.33332V15.8333C15.5416 16.2687 15.1853 16.625 14.7499 16.625Z" fill="#6B27F8"/>
</svg>
